<?xml version="1.0" encoding="utf-8"?>
<!-- Generator: Adobe Illustrator 22.1.0, SVG Export Plug-In . SVG Version: 6.00 Build 0)  -->
<svg version="1.1" id="Camada_1" xmlns="http://www.w3.org/2000/svg" xmlns:xlink="http://www.w3.org/1999/xlink" x="0px" y="0px"
	 viewBox="0 0 113.9 45.5" style="enable-background:new 0 0 113.9 45.5;" xml:space="preserve">
<g>
	<path d="M24.9,35c2.4-1.1,4.5-2.9,5.9-5.3c0.2-0.3,0.4-0.7,0.5-1c0.1-0.3,0.3-0.7,0.4-1c0.2-0.6,0.4-1.3,0.5-2
		c0.2-1.3,0.2-2.7,0.1-4c-0.6-5.3-4.4-9.9-9.3-11.6c-2.4-0.8-5.1-1-7.5-0.4c-2.4,0.6-4.7,1.8-6.3,3.6c-0.5,0.5-0.6,1.3-0.2,1.9
		c0.5,0.8,1.5,1,2.2,0.6l0,0c3.1-1.8,6.8-1.9,9.6-0.5c2.9,1.3,4.8,4.2,5.1,7.2c0.1,0.7,0.1,1.5-0.1,2.2c-0.1,0.4-0.1,0.7-0.2,1.1
		l-0.1,0.4c-0.1,0.1-0.1,0.2-0.2,0.4c-0.4,0.8-1,1.5-1.8,2.1c0.3-0.7,0.5-1.5,0.6-2.1c0.6-4.7-2.7-9-7.4-9.7c-4.7-0.6-9,2.7-9.7,7.4
		c-0.8,6.4,6.4,17,6.4,17s2.5-2.2,5.1-5.1C20.8,36.2,23,35.9,24.9,35z M12.7,24.9c0.2-1.7,1.8-2.9,3.5-2.6c1.7,0.2,2.9,1.8,2.6,3.5
		c-0.2,1.7-1.8,2.9-3.5,2.6C13.6,28.2,12.4,26.6,12.7,24.9z"/>
	<path d="M31.1,3.7c-3.3-2-7.3-3-11.1-3c-3.9,0-7.7,1.1-10.9,3.1c-3.2,2-5.9,4.8-7.5,8.1c-0.3,0.6-0.1,1.4,0.4,1.9
		c0.7,0.5,1.6,0.4,2.1-0.3l0,0c1.9-2.5,4.4-4.5,7.1-5.8C14,6.5,17,5.9,19.9,6.1c5.9,0.3,11.4,3.7,14.2,8.7c1.4,2.5,2.2,5.4,2.2,8.3
		c0,0.7,0,1.5-0.1,2.2l-0.1,1.1l-0.3,1.1c-0.1,0.7-0.4,1.4-0.6,2.1c-0.3,0.7-0.5,1.4-0.9,2l-0.5,1l-0.6,0.9
		c-0.2,0.3-0.4,0.6-0.7,0.9c-0.2,0.3-0.5,0.6-0.7,0.9c-1,1.1-2.2,2.1-3.4,2.9c-2.5,1.7-5.5,2.6-8.7,3l-0.1,0
		c-0.7,0.1-1.3,0.7-1.3,1.4c-0.1,0.8,0.6,1.5,1.4,1.6c3.6,0.2,7.5-0.5,10.8-2.2l1.2-0.7c0.4-0.2,0.8-0.5,1.2-0.8
		c0.8-0.5,1.5-1.2,2.2-1.8c1.4-1.3,2.7-2.8,3.6-4.4c2.1-3.2,3.2-7.1,3.3-11c0.1-3.9-0.9-7.8-2.8-11.2C37.3,8.6,34.5,5.7,31.1,3.7z"
		/>
	<path d="M62.2,16.7c-0.8-0.3-1.8-0.5-2.8-0.5H51v19h5v-5.7c0.1,0,0.5,0.1,1.3,0.3c0.8,0.2,1.6,0.2,2.3,0.2c1.6,0,2.9-0.5,3.9-1.4
		c1-1,1.6-2.8,1.6-5.5c0-1.9-0.3-3.3-0.8-4.3C63.7,17.7,63,17.1,62.2,16.7z M59.9,25c-0.2,0.4-0.5,0.6-1,0.6H56v-4.9h2.9
		c0.5,0,0.8,0.2,1,0.6c0.2,0.4,0.3,1,0.3,1.8C60.2,24,60.1,24.6,59.9,25z"/>
	<path d="M68.6,17.3c-0.9,0.7-1.4,1.9-1.4,3.6v9.9c0,3,1.7,4.5,5,4.5c1.4,0,2.8,0,4.3-0.1c1.5-0.1,2.8-0.2,3.8-0.3v-4.2h-7
		c-0.3,0-0.6-0.1-0.8-0.3c-0.2-0.2-0.3-0.6-0.3-1V28l6.9-0.3v-3.9l-6.9-0.3V22c0-0.7,0.4-1.1,1.3-1.1h6.8v-4.2
		c-2.5-0.3-5.3-0.4-8.4-0.4C70.6,16.3,69.5,16.6,68.6,17.3z"/>
	<polygon points="89.4,24.8 86.5,16.3 81.3,16.3 86.8,29.8 86.8,35.2 91.8,35.2 91.8,29.8 97.3,16.3 92.3,16.3 	"/>
	<path d="M108.9,16.3v12.7c0,0.6-0.2,1.1-0.7,1.5s-1.1,0.5-2,0.5s-1.6-0.2-2-0.5s-0.7-0.8-0.7-1.5V16.3h-5V29c0,2.5,0.7,4.1,2,5
		c1.4,0.9,3.2,1.4,5.7,1.4s4.3-0.5,5.7-1.4c1.4-0.9,2-2.6,2-5V16.3H108.9z"/>
</g>
</svg>
